# xmcd CD database file
#
# Track frame offsets:
#	150
#	8402
#	18305
#	33232
#	44869
#	58538
#	72496
#	87286
#	98465
#	108149
#	120158
#	133595
#	146274
#	160759
#	174640
#	188746
#	203908
#
# Disc length: 2942 seconds
#
# Revision: 2
# Processed by: cddbd v1.5.2PL0 Copyright (c) Steve Scherf et al.
# Submitted via: CD2WAV32(JP) R3.22
#
DISCID=d30b7c11
DTITLE=水木一郎 - 永井豪ヒーロー伝説 鋼鉄魔神編
DYEAR=2002
DGENRE=Anime(J)
TTITLE0=水木一郎/マジンガーZ
TTITLE1=水木一郎/Zのテーマ
TTITLE2=佐々木功/ゲッターロボ!
TTITLE3=水木一郎/おれはグレートマジンガー
TTITLE4=佐々木功/不滅のマシンゲッターロボ
TTITLE5=水木一郎/鋼鉄ジーグのうた
TTITLE6=MIO/時間の誘惑
TTITLE7=水木一郎/鉄也のテーマ
TTITLE8=遠藤正明/飛べ!グロイザーX
TTITLE9=影山ヒロノブ/とべ!グレンダイザー
TTITLE10=カインズ&アップル・パイ/マシンザウラー
TTITLE11=佐々木功/宇宙の王者グレンダイザー
TTITLE12=影山ヒロノブ/孤独の旅路～LONELY JOURNEY～
TTITLE13=MIO/21世紀少年(21st century boy)
TTITLE14=水木一郎/ゲッターロボ號
TTITLE15=MIO/怒りの獣神
TTITLE16=水木一郎/マジンカイザー
EXTD=
EXTT0=
EXTT1=
EXTT2=
EXTT3=
EXTT4=
EXTT5=
EXTT6=
EXTT7=
EXTT8=
EXTT9=
EXTT10=
EXTT11=
EXTT12=
EXTT13=
EXTT14=
EXTT15=
EXTT16=
PLAYORDER=
